<?xml version="1.0" encoding="UTF-8"?>
<svg width="64px" height="56px" viewBox="0 0 64 56" version="1.1" xmlns="http://www.w3.org/2000/svg" xmlns:xlink="http://www.w3.org/1999/xlink">
    <title>newsdesk</title>
    <g id="newsdesk" stroke="none" stroke-width="1" fill="none" fill-rule="evenodd">
        <g id="noun_news_2544139" fill="#006695" fill-rule="nonzero">
            <g id="Group">
                <path d="M61,-0.002 L3,-0.002 C1.346,-0.002 0,1.344 0,2.998 L0,55.002 C0,55.555 0.447,56.002 1,56.002 L63,56.002 C63.553,56.002 64,55.555 64,55.002 L64,2.998 C64,1.344 62.654,-0.002 61,-0.002 Z M2,5.998 L62,5.998 L62,54.002 L2,54.002 L2,5.998 Z M3,1.998 L4.02,1.998 C3.468,1.998 3.026,2.445 3.026,2.998 C3.026,3.551 3.478,3.998 4.031,3.998 C4.583,3.998 5.031,3.551 5.031,2.998 C5.031,2.445 4.583,1.998 4.031,1.998 L7.019,1.998 C6.467,1.998 6.025,2.445 6.025,2.998 C6.025,3.551 6.477,3.998 7.03,3.998 C7.582,3.998 8.03,3.551 8.03,2.998 C8.03,2.445 7.582,1.998 7.03,1.998 L10.022,1.998 C9.47,1.998 9.028,2.445 9.028,2.998 C9.028,3.551 9.48,3.998 10.033,3.998 C10.585,3.998 11.033,3.551 11.033,2.998 C11.033,2.445 10.585,1.998 10.033,1.998 L61,1.998 C61.552,1.998 62,2.446 62,2.998 L62,3.998 L10.032,3.998 L7.029,3.998 L4.03,3.998 L2,3.998 L2,2.998 C2,2.446 2.448,1.998 3,1.998 Z" id="Shape"></path>
                <path d="M21,7.998 L5,7.998 C4.447,7.998 4,8.445 4,8.998 L4,23.996 C4,24.549 4.447,24.996 5,24.996 L21,24.996 C21.553,24.996 22,24.549 22,23.996 L22,8.998 C22,8.445 21.553,7.998 21,7.998 Z M20,22.996 L6,22.996 L6,9.998 L20,9.998 L20,22.996 Z" id="Shape"></path>
                <path d="M17.026,19.001 L17.015,19.001 C16.463,19.001 16.021,19.448 16.021,20.001 C16.021,20.554 16.473,21.001 17.026,21.001 C17.578,21.001 18.026,20.554 18.026,20.001 C18.026,19.448 17.578,19.001 17.026,19.001 Z" id="Path"></path>
                <path d="M13.996,19.001 L12.005,19.001 C11.452,19.001 11.005,19.448 11.005,20.001 C11.005,20.554 11.452,21.001 12.005,21.001 L13.996,21.001 C14.549,21.001 14.996,20.554 14.996,20.001 C14.996,19.448 14.549,19.001 13.996,19.001 Z" id="Path"></path>
                <path d="M9,13.995 L17,13.995 C17.553,13.995 18,13.548 18,12.995 C18,12.442 17.553,11.995 17,11.995 L9,11.995 C8.447,11.995 8,12.442 8,12.995 C8,13.548 8.447,13.995 9,13.995 Z" id="Path"></path>
                <path d="M9,16.995 L17,16.995 C17.553,16.995 18,16.548 18,15.995 C18,15.442 17.553,14.995 17,14.995 L9,14.995 C8.447,14.995 8,15.442 8,15.995 C8,16.548 8.447,16.995 9,16.995 Z" id="Path"></path>
                <path d="M40,35.004 L24,35.004 C23.447,35.004 23,35.451 23,36.004 L23,51.002 C23,51.555 23.447,52.002 24,52.002 L40,52.002 C40.553,52.002 41,51.555 41,51.002 L41,36.004 C41,35.451 40.553,35.004 40,35.004 Z M39,50.002 L25,50.002 L25,37.004 L39,37.004 L39,50.002 Z" id="Shape"></path>
                <path d="M36.026,46.007 L36.015,46.007 C35.463,46.007 35.021,46.454 35.021,47.007 C35.021,47.56 35.473,48.007 36.026,48.007 C36.578,48.007 37.026,47.56 37.026,47.007 C37.026,46.454 36.578,46.007 36.026,46.007 Z" id="Path"></path>
                <path d="M32.996,46.007 L31.005,46.007 C30.452,46.007 30.005,46.454 30.005,47.007 C30.005,47.56 30.452,48.007 31.005,48.007 L32.996,48.007 C33.549,48.007 33.996,47.56 33.996,47.007 C33.996,46.454 33.549,46.007 32.996,46.007 Z" id="Path"></path>
                <path d="M28,41.001 L36,41.001 C36.553,41.001 37,40.554 37,40.001 C37,39.448 36.553,39.001 36,39.001 L28,39.001 C27.447,39.001 27,39.448 27,40.001 C27,40.554 27.447,41.001 28,41.001 Z" id="Path"></path>
                <path d="M28,44.001 L36,44.001 C36.553,44.001 37,43.554 37,43.001 C37,42.448 36.553,42.001 36,42.001 L28,42.001 C27.447,42.001 27,42.448 27,43.001 C27,43.554 27.447,44.001 28,44.001 Z" id="Path"></path>
                <path d="M21,25.995 L5,25.995 C4.447,25.995 4,26.442 4,26.995 L4,51.002 C4,51.555 4.447,52.002 5,52.002 L21,52.002 C21.553,52.002 22,51.555 22,51.002 L22,26.995 C22,26.442 21.553,25.995 21,25.995 Z M20,50.002 L6,50.002 L6,27.995 L20,27.995 L20,50.002 Z" id="Shape"></path>
                <path d="M17.026,46.013 L17.015,46.013 C16.463,46.013 16.021,46.46 16.021,47.013 C16.021,47.566 16.473,48.013 17.026,48.013 C17.578,48.013 18.026,47.566 18.026,47.013 C18.026,46.46 17.578,46.013 17.026,46.013 Z" id="Path"></path>
                <path d="M13.996,46.013 L12.005,46.013 C11.452,46.013 11.005,46.46 11.005,47.013 C11.005,47.566 11.452,48.013 12.005,48.013 L13.996,48.013 C14.549,48.013 14.996,47.566 14.996,47.013 C14.996,46.46 14.549,46.013 13.996,46.013 Z" id="Path"></path>
                <path d="M9,41.007 L17,41.007 C17.553,41.007 18,40.56 18,40.007 C18,39.454 17.553,39.007 17,39.007 L9,39.007 C8.447,39.007 8,39.454 8,40.007 C8,40.56 8.447,41.007 9,41.007 Z" id="Path"></path>
                <path d="M9,38.007 L17,38.007 C17.553,38.007 18,37.56 18,37.007 C18,36.454 17.553,36.007 17,36.007 L9,36.007 C8.447,36.007 8,36.454 8,37.007 C8,37.56 8.447,38.007 9,38.007 Z" id="Path"></path>
                <path d="M9,35.007 L17,35.007 C17.553,35.007 18,34.56 18,34.007 C18,33.454 17.553,33.007 17,33.007 L9,33.007 C8.447,33.007 8,33.454 8,34.007 C8,34.56 8.447,35.007 9,35.007 Z" id="Path"></path>
                <path d="M9,32.007 L17,32.007 C17.553,32.007 18,31.56 18,31.007 C18,30.454 17.553,30.007 17,30.007 L9,30.007 C8.447,30.007 8,30.454 8,31.007 C8,31.56 8.447,32.007 9,32.007 Z" id="Path"></path>
                <path d="M9,44.007 L17,44.007 C17.553,44.007 18,43.56 18,43.007 C18,42.454 17.553,42.007 17,42.007 L9,42.007 C8.447,42.007 8,42.454 8,43.007 C8,43.56 8.447,44.007 9,44.007 Z" id="Path"></path>
                <path d="M59,7.998 L43,7.998 C42.447,7.998 42,8.445 42,8.998 L42,23.996 C42,24.549 42.447,24.996 43,24.996 L59,24.996 C59.553,24.996 60,24.549 60,23.996 L60,8.998 C60,8.445 59.553,7.998 59,7.998 Z M58,22.996 L44,22.996 L44,9.998 L58,9.998 L58,22.996 Z" id="Shape"></path>
                <path d="M55.026,19.001 L55.015,19.001 C54.463,19.001 54.021,19.448 54.021,20.001 C54.021,20.554 54.473,21.001 55.026,21.001 C55.578,21.001 56.026,20.554 56.026,20.001 C56.026,19.448 55.578,19.001 55.026,19.001 Z" id="Path"></path>
                <path d="M51.996,19.001 L50.005,19.001 C49.452,19.001 49.005,19.448 49.005,20.001 C49.005,20.554 49.452,21.001 50.005,21.001 L51.996,21.001 C52.549,21.001 52.996,20.554 52.996,20.001 C52.996,19.448 52.549,19.001 51.996,19.001 Z" id="Path"></path>
                <path d="M47,13.995 L55,13.995 C55.553,13.995 56,13.548 56,12.995 C56,12.442 55.553,11.995 55,11.995 L47,11.995 C46.447,11.995 46,12.442 46,12.995 C46,13.548 46.447,13.995 47,13.995 Z" id="Path"></path>
                <path d="M47,16.995 L55,16.995 C55.553,16.995 56,16.548 56,15.995 C56,15.442 55.553,14.995 55,14.995 L47,14.995 C46.447,14.995 46,15.442 46,15.995 C46,16.548 46.447,16.995 47,16.995 Z" id="Path"></path>
                <path d="M59,25.995 L43,25.995 C42.447,25.995 42,26.442 42,26.995 L42,51.002 C42,51.555 42.447,52.002 43,52.002 L59,52.002 C59.553,52.002 60,51.555 60,51.002 L60,26.995 C60,26.442 59.553,25.995 59,25.995 Z M58,50.002 L44,50.002 L44,27.995 L58,27.995 L58,50.002 Z" id="Shape"></path>
                <path d="M55.026,46.013 L55.015,46.013 C54.463,46.013 54.021,46.46 54.021,47.013 C54.021,47.566 54.473,48.013 55.026,48.013 C55.578,48.013 56.026,47.566 56.026,47.013 C56.026,46.46 55.578,46.013 55.026,46.013 Z" id="Path"></path>
                <path d="M51.996,46.013 L50.005,46.013 C49.452,46.013 49.005,46.46 49.005,47.013 C49.005,47.566 49.452,48.013 50.005,48.013 L51.996,48.013 C52.549,48.013 52.996,47.566 52.996,47.013 C52.996,46.46 52.549,46.013 51.996,46.013 Z" id="Path"></path>
                <path d="M47,41.007 L55,41.007 C55.553,41.007 56,40.56 56,40.007 C56,39.454 55.553,39.007 55,39.007 L47,39.007 C46.447,39.007 46,39.454 46,40.007 C46,40.56 46.447,41.007 47,41.007 Z" id="Path"></path>
                <path d="M47,38.007 L55,38.007 C55.553,38.007 56,37.56 56,37.007 C56,36.454 55.553,36.007 55,36.007 L47,36.007 C46.447,36.007 46,36.454 46,37.007 C46,37.56 46.447,38.007 47,38.007 Z" id="Path"></path>
                <path d="M47,35.007 L55,35.007 C55.553,35.007 56,34.56 56,34.007 C56,33.454 55.553,33.007 55,33.007 L47,33.007 C46.447,33.007 46,33.454 46,34.007 C46,34.56 46.447,35.007 47,35.007 Z" id="Path"></path>
                <path d="M47,32.007 L55,32.007 C55.553,32.007 56,31.56 56,31.007 C56,30.454 55.553,30.007 55,30.007 L47,30.007 C46.447,30.007 46,30.454 46,31.007 C46,31.56 46.447,32.007 47,32.007 Z" id="Path"></path>
                <path d="M47,44.007 L55,44.007 C55.553,44.007 56,43.56 56,43.007 C56,42.454 55.553,42.007 55,42.007 L47,42.007 C46.447,42.007 46,42.454 46,43.007 C46,43.56 46.447,44.007 47,44.007 Z" id="Path"></path>
                <path d="M40,7.995 L24,7.995 C23.447,7.995 23,8.442 23,8.995 L23,33.002 C23,33.555 23.447,34.002 24,34.002 L40,34.002 C40.553,34.002 41,33.555 41,33.002 L41,8.995 C41,8.442 40.553,7.995 40,7.995 Z M39,32.002 L25,32.002 L25,9.995 L39,9.995 L39,32.002 Z" id="Shape"></path>
                <path d="M36.026,28.013 L36.015,28.013 C35.463,28.013 35.021,28.46 35.021,29.013 C35.021,29.566 35.473,30.013 36.026,30.013 C36.578,30.013 37.026,29.566 37.026,29.013 C37.026,28.46 36.578,28.013 36.026,28.013 Z" id="Path"></path>
                <path d="M32.996,28.013 L31.005,28.013 C30.452,28.013 30.005,28.46 30.005,29.013 C30.005,29.566 30.452,30.013 31.005,30.013 L32.996,30.013 C33.549,30.013 33.996,29.566 33.996,29.013 C33.996,28.46 33.549,28.013 32.996,28.013 Z" id="Path"></path>
                <path d="M28,23.007 L36,23.007 C36.553,23.007 37,22.56 37,22.007 C37,21.454 36.553,21.007 36,21.007 L28,21.007 C27.447,21.007 27,21.454 27,22.007 C27,22.56 27.447,23.007 28,23.007 Z" id="Path"></path>
                <path d="M28,20.007 L36,20.007 C36.553,20.007 37,19.56 37,19.007 C37,18.454 36.553,18.007 36,18.007 L28,18.007 C27.447,18.007 27,18.454 27,19.007 C27,19.56 27.447,20.007 28,20.007 Z" id="Path"></path>
                <path d="M28,17.007 L36,17.007 C36.553,17.007 37,16.56 37,16.007 C37,15.454 36.553,15.007 36,15.007 L28,15.007 C27.447,15.007 27,15.454 27,16.007 C27,16.56 27.447,17.007 28,17.007 Z" id="Path"></path>
                <path d="M28,14.007 L36,14.007 C36.553,14.007 37,13.56 37,13.007 C37,12.454 36.553,12.007 36,12.007 L28,12.007 C27.447,12.007 27,12.454 27,13.007 C27,13.56 27.447,14.007 28,14.007 Z" id="Path"></path>
                <path d="M28,26.007 L36,26.007 C36.553,26.007 37,25.56 37,25.007 C37,24.454 36.553,24.007 36,24.007 L28,24.007 C27.447,24.007 27,24.454 27,25.007 C27,25.56 27.447,26.007 28,26.007 Z" id="Path"></path>
            </g>
        </g>
    </g>
</svg>